<svg id="Layer_1" data-name="Layer 1" xmlns="http://www.w3.org/2000/svg" viewBox="0 0 690 495"><defs><style>.cls-1{fill:#fff;}.cls-2{fill:#222;}</style></defs><title>2Artboard 2 copy 21</title><path class="cls-1" d="M428,246.88v-5c0-7.9-4.46-12.36-11.52-12.36s-11.44,4.46-11.44,12.36v28.75c0,7.91,4.46,12.36,11.44,12.36S428,278.58,428,270.67V259.24H417.93v-3.7H431.8v15.55c0,9.5-6.31,15.64-15.3,15.64s-15.3-6.14-15.3-15.64V241.5c0-9.5,6.3-15.64,15.3-15.64s15.3,6.14,15.3,15.64v5.38Z"/><path class="cls-1" d="M442.39,226.79h3.87v59h-3.87Z"/><path class="cls-1" d="M487,226.79l-13.95,59h-4.46l-14-59h3.87l12.44,52.54,12.36-52.54Z"/><path class="cls-1" d="M495.35,226.79h3.87v59h-3.87Z"/><path class="cls-1" d="M540,226.79v59h-3.45L514.69,235v50.79h-3.45v-59h3.45l21.86,50.78V226.79Z"/><path class="cls-1" d="M577.32,246.88v-5c0-7.9-4.45-12.36-11.52-12.36s-11.43,4.46-11.43,12.36v28.75c0,7.91,4.46,12.36,11.43,12.36s11.52-4.45,11.52-12.36V259.24H567.23v-3.7h13.88v15.55c0,9.5-6.31,15.64-15.31,15.64s-15.3-6.14-15.3-15.64V241.5c0-9.5,6.31-15.64,15.3-15.64s15.31,6.14,15.31,15.64v5.38Z"/><circle class="cls-1" cx="151.38" cy="139.4" r="29.16"/><circle class="cls-1" cx="49.31" cy="184.06" r="19.59"/><circle class="cls-1" cx="103.53" cy="404.14" r="19.59"/><circle class="cls-1" cx="221.55" cy="388.2" r="19.59"/><circle class="cls-1" cx="381.03" cy="346.73" r="25.97"/><circle class="cls-1" cx="84.39" cy="291.32" r="11.01"/><circle class="cls-1" cx="330" cy="451.99" r="11.01"/><circle class="cls-1" cx="224.74" cy="40.52" r="21.02"/><circle class="cls-1" cx="333.19" cy="104.32" r="21.02"/><path class="cls-1" d="M212.85,211.57l-59.79-71.75-2.45,2.05,60.16,72.19C211.44,213.21,212.14,212.39,212.85,211.57Z"/><circle class="cls-2" cx="267" cy="259" r="72"/><path class="cls-1" d="M295.75,193l39.34-86.56-2.9-1.32-39.4,86.68C293.79,192.16,294.77,192.56,295.75,193Z"/><path class="cls-1" d="M255.58,187.91,226.76,41.66l-3.13.61,28.81,146.2C253.48,188.26,254.53,188.08,255.58,187.91Z"/><path class="cls-1" d="M199.9,232.91,50.26,184l-1,3L198.81,235.9C199.15,234.89,199.51,233.89,199.9,232.91Z"/><path class="cls-1" d="M195.15,263.47,84.49,289.21l.72,3.1,110.2-25.63C195.3,265.62,195.22,264.55,195.15,263.47Z"/><path class="cls-1" d="M204.28,294.34,102.82,404.51l2.34,2.16L206,297.2C205.39,296.27,204.83,295.31,204.28,294.34Z"/><path class="cls-1" d="M241.88,326.49,220.5,389.12l3,1,21.39-62.62C243.88,327.2,242.88,326.86,241.88,326.49Z"/><path class="cls-1" d="M323.29,303.87c-.67.84-1.35,1.65-2.05,2.46l59.31,43.13,1.88-2.58Z"/><path class="cls-1" d="M285.88,328.48,328.94,454l3-1L289,327.58C287.94,327.91,286.91,328.2,285.88,328.48Z"/><path class="cls-1" d="M266.52,161.54a98.08,98.08,0,1,0,98.08,98.08A98.08,98.08,0,0,0,266.52,161.54ZM239,274.58c0,10.05-6.71,16.75-16,16.75-8.87,0-15.67-6.9-15.67-17.54v-5.72h4.53v5.23c0,8.77,4.44,13.7,11.14,13.7,7,0,11.53-4.64,11.53-12.92v-4.23c0-8.28-4.53-12.91-11.53-12.91h-5.22V252.6h5.22c6.6,0,11.14-4.34,11.14-12.12v-4c0-7.79-4.54-12.13-11.14-12.13s-11.14,4.93-11.14,13.7v4.44h-4.53v-4.93c0-10.64,6.8-17.54,15.67-17.54s15.57,6.4,15.57,16v5c0,6.31-2.86,11.14-7.29,13.8,4.63,2.76,7.69,8,7.69,14.58ZM282.39,273c0,11.14-6.6,18.33-16.16,18.33S250,284.14,250,272.9V238.31c0-11.43,6.9-18.33,16.16-18.33,7.79,0,15.08,5.22,15.08,14.88h-4.53c0-7.2-4.73-10.64-10.45-10.64-7.49,0-11.73,5.32-11.73,14.68v14.49a14.63,14.63,0,0,1,11.93-5.92c9.56,0,16,5.43,16,17.35Zm43.17,0c0,11.14-6.5,18.33-16.06,18.33s-16.17-7.19-16.17-18.33V238.31c0-11.14,6.61-18.33,16.17-18.33s16.06,7.19,16.06,18.33Z"/><path class="cls-1" d="M309.5,224.31c-7.4,0-11.63,5.23-11.63,14.49v33.71c0,9.26,4.23,14.49,11.63,14.49s11.63-5.23,11.63-14.49V238.8C321.13,229.54,316.89,224.31,309.5,224.31Z"/><path class="cls-1" d="M265.83,251.22c-5.12,0-10.25,3.15-11.33,10.84v10.45c0,9.36,4.24,14.58,11.73,14.58S278,281.87,278,272.61V265C278,255.16,273.82,251.22,265.83,251.22Z"/></svg>