<svg id="Layer_1" data-name="Layer 1" xmlns="http://www.w3.org/2000/svg" viewBox="0 0 690 495"><defs><style>.cls-1{font-size:98.86px;}.cls-1,.cls-5{fill:#3b3d3c;}.cls-1,.cls-6{font-family:NeusaNextStd-CompactLight, Neusa Next Std;font-weight:300;}.cls-2{fill:#9c1f61;}.cls-3{fill:#f4821f;}.cls-4{fill:#50abe4;}.cls-6{font-size:98.56px;fill:#fff;}</style></defs><title>2Artboard 2 copy1</title><text class="cls-1" transform="translate(396.66 292.65)">GIVING</text><circle class="cls-2" cx="151.38" cy="139.4" r="29.16"/><circle class="cls-3" cx="49.31" cy="184.06" r="19.59"/><circle class="cls-3" cx="103.53" cy="404.14" r="19.59"/><circle class="cls-2" cx="221.55" cy="388.2" r="19.59"/><circle class="cls-4" cx="381.03" cy="346.73" r="25.97"/><circle class="cls-4" cx="84.39" cy="291.32" r="11.01"/><circle class="cls-2" cx="330" cy="451.99" r="11.01"/><circle class="cls-3" cx="224.74" cy="40.52" r="21.02"/><circle class="cls-4" cx="333.19" cy="104.32" r="21.02"/><rect class="cls-3" x="245.13" y="39.86" width="3.19" height="222.69" transform="translate(-24.58 50.56) rotate(-11.15)"/><rect class="cls-2" x="190.11" y="126.41" width="3.19" height="124.56" transform="translate(-76.36 166.46) rotate(-39.81)"/><rect class="cls-3" x="131.1" y="125.36" width="3.19" height="174.5" transform="translate(-110.63 272.67) rotate(-71.9)"/><rect class="cls-4" x="83.02" y="273.22" width="140.81" height="3.19" transform="translate(-58.29 41.92) rotate(-13.1)"/><rect class="cls-3" x="77.41" y="343.39" width="164.78" height="3.19" transform="translate(-202.17 228.69) rotate(-47.33)"/><rect class="cls-2" x="175.24" y="322.66" width="138.19" height="3.19" transform="translate(-141.49 450.65) rotate(-71.14)"/><rect class="cls-2" x="296.22" y="257.78" width="3.19" height="201.1" transform="translate(-100.19 116.08) rotate(-18.94)"/><rect class="cls-4" x="327.26" y="244.82" width="3.19" height="130.15" transform="translate(-115.19 393.58) rotate(-53.97)"/><rect class="cls-4" x="224.66" y="174.34" width="154.16" height="3.19" transform="translate(16.66 377.74) rotate(-65.54)"/><circle class="cls-5" cx="266.52" cy="259.62" r="98.08"/><text class="cls-6" transform="translate(201.97 292.25)">360</text></svg>